<?xml version="1.0" encoding="UTF-8"?>
<svg version="1.1" xmlns="http://www.w3.org/2000/svg" width="48" height="48">
<path d="M0 0 C3.96 0 7.92 0 12 0 C12 3.96 12 7.92 12 12 C11.01 12 10.02 12 9 12 C8.505 10.02 8.505 10.02 8 8 C7.33613281 8.721875 6.67226563 9.44375 5.98828125 10.1875 C5.10527344 11.115625 4.22226562 12.04375 3.3125 13 C2.00732422 14.3921875 2.00732422 14.3921875 0.67578125 15.8125 C-2 18 -2 18 -4.53125 18.59375 C-7.96894115 17.76696352 -9.42289548 16.06793322 -11.8125 13.5 C-12.60269531 12.6646875 -13.39289062 11.829375 -14.20703125 10.96875 C-14.79871094 10.3190625 -15.39039062 9.669375 -16 9 C-19.39011671 11.84300854 -22.66135584 14.6377295 -25.6875 17.875 C-28 20 -28 20 -32 20 C-31.647081 14.71601835 -28.84211005 12.20691258 -25.25 8.6875 C-24.7240625 8.13771484 -24.198125 7.58792969 -23.65625 7.02148438 C-21.36347855 4.73722569 -19.58855919 3.14469856 -16.41015625 2.36328125 C-13.04091133 3.25337351 -11.54445331 4.96715465 -9.1875 7.5 C-8.39730469 8.3353125 -7.60710938 9.170625 -6.79296875 10.03125 C-6.20128906 10.6809375 -5.60960938 11.330625 -5 12 C-3.87411986 11.04270084 -2.7493285 10.08412105 -1.625 9.125 C-0.68527344 8.32449219 -0.68527344 8.32449219 0.2734375 7.5078125 C1.55836651 6.38567993 2.79371975 5.20628025 4 4 C1.525 3.01 1.525 3.01 -1 2 C-0.67 1.34 -0.34 0.68 0 0 Z " fill="#32CC57" transform="translate(34,14)"/>
</svg>
